<svg width="156" height="40" viewBox="0 0 156 40" fill="none" xmlns="http://www.w3.org/2000/svg">
<g clip-path="url(#clip0_1_149)">
<g clip-path="url(#clip1_1_149)">
<path d="M33.2075 1.62674H37.4182C37.8473 1.62674 38.1905 1.2801 38.1905 0.860489C38.1905 0.440875 37.8411 0.0942383 37.4182 0.0942383H33.2075C32.7785 0.0942383 32.4352 0.440875 32.4352 0.860489C32.4352 1.2801 32.7846 1.62674 33.2075 1.62674Z" fill="#120E1F"/>
<path d="M28.6782 1.62674H30.4679C30.8969 1.62674 31.2401 1.2801 31.2401 0.860489C31.2401 0.440875 30.8908 0.0942383 30.4679 0.0942383H28.6782C28.2491 0.0942383 27.9059 0.440875 27.9059 0.860489C27.9059 1.2801 28.2552 1.62674 28.6782 1.62674Z" fill="#120E1F"/>
<path d="M37.2651 3.32957C35.9657 3.32957 34.6725 3.32957 33.3731 3.32957C32.9441 3.32957 32.6008 3.67621 32.6008 4.09582C32.6008 4.52151 32.9502 4.86207 33.3731 4.86207C34.6725 4.86207 35.9718 4.86207 37.2712 4.86207C37.7003 4.86207 38.0435 4.51543 38.0435 4.08974C38.0435 3.66404 37.6941 3.32349 37.2712 3.32349L37.2651 3.32957Z" fill="#120E1F"/>
<path d="M33.1707 8.10306C34.4946 8.10306 35.8185 8.10914 37.1424 8.11522C37.5714 8.11522 37.9146 7.77466 37.9146 7.34897C37.9146 6.92327 37.5714 6.58272 37.1424 6.58272C35.8185 6.58272 34.4946 6.58272 33.1707 6.57056C32.7417 6.57056 32.3984 6.91111 32.3984 7.33681C32.3984 7.7625 32.7417 8.10914 33.1707 8.10914V8.10306Z" fill="#120E1F"/>
<path d="M40.1457 8.10928C41.9416 8.10928 43.7374 8.10928 45.5271 8.09711C45.9562 8.09711 46.2994 7.75048 46.2994 7.32478C46.2994 6.89909 45.95 6.55853 45.5271 6.55853C43.7313 6.56461 41.9416 6.5707 40.1457 6.5707C39.7167 6.5707 39.3735 6.91733 39.3735 7.33694C39.3735 7.76264 39.7228 8.1032 40.1457 8.1032V8.10928Z" fill="#120E1F"/>
<path d="M42.0519 11.3508C42.4809 11.3508 42.8241 11.0042 42.8241 10.5785C42.8241 10.1528 42.4748 9.81221 42.0519 9.81221C39.7228 9.81221 37.3754 9.81221 35.0892 9.80005C34.6601 9.80005 34.3108 10.1406 34.3108 10.5663C34.3108 10.992 34.654 11.3386 35.0831 11.3386C36.8176 11.3508 38.5889 11.3569 40.3541 11.3569C40.9241 11.3569 41.488 11.3569 42.058 11.3569L42.0519 11.3508Z" fill="#120E1F"/>
<path d="M38.5092 13.0354C37.3018 13.0476 36.0882 13.0536 34.8992 13.0536C34.4701 13.0536 34.1269 13.4003 34.1269 13.826C34.1269 14.2517 34.4763 14.5922 34.8992 14.5922C36.0943 14.5922 37.314 14.5801 38.5215 14.574C38.9505 14.574 39.2937 14.2213 39.2876 13.8016C39.2876 13.382 38.9383 13.0415 38.5153 13.0415H38.5092V13.0354Z" fill="#120E1F"/>
<path d="M36.174 20.2659C36.1679 20.6915 36.5111 21.0382 36.934 21.0443C38.4234 21.0686 39.9251 21.0747 41.4144 21.0747C41.8006 21.0747 42.1867 21.0747 42.5728 21.0747C43.0019 21.0747 43.3451 20.728 43.3451 20.3023C43.3451 19.8766 42.9957 19.5361 42.5728 19.5361C40.7157 19.5422 38.8279 19.5361 36.9647 19.5057C36.5356 19.4935 36.1863 19.8402 36.1802 20.2598L36.174 20.2659Z" fill="#120E1F"/>
<path d="M38.5766 24.3222C39.9924 24.3222 41.4389 24.3101 42.8608 24.2858C43.2899 24.2797 43.627 23.927 43.6209 23.5073C43.6147 23.0816 43.2654 22.7472 42.8363 22.7533C41.4205 22.7776 39.9863 22.7897 38.5766 22.7897C38.1476 22.7897 37.8043 23.1364 37.8043 23.556C37.8043 23.9817 38.1537 24.3222 38.5766 24.3222Z" fill="#120E1F"/>
<path d="M46.1339 29.2178H44.0929C44.3013 29.0657 44.4239 28.8225 44.4116 28.5549L44.3503 27.5211H46.0481C46.4771 27.5211 46.8204 27.1744 46.8204 26.7548C46.8204 26.3352 46.4771 25.9886 46.0481 25.9886H44.2584L44.24 25.6602C44.2277 25.4534 44.1358 25.2588 43.9765 25.125C43.8171 24.9851 43.6148 24.9182 43.4064 24.9365L35.506 25.575L34.8931 24.304C35.4508 24.3101 36.0086 24.3162 36.5663 24.3162C36.9954 24.3162 37.3386 23.9756 37.3386 23.5499C37.3386 23.1242 36.9954 22.7776 36.5663 22.7776C35.7573 22.7776 34.9421 22.7654 34.1331 22.7533L33.3118 21.0444H34.9299C35.3589 21.0444 35.7021 20.7039 35.7021 20.2782C35.7021 19.8525 35.3589 19.5119 34.9299 19.5119H32.564L31.7489 17.8213C32.7602 17.8274 33.7653 17.8335 34.7644 17.8335C36.1802 17.8335 37.5899 17.8274 39.018 17.8031C39.447 17.8031 39.7903 17.4503 39.7841 17.0246C39.7841 16.599 39.4286 16.2523 38.9996 16.2645C36.3273 16.301 33.704 16.301 31.0072 16.2645L30.1859 14.5678C30.7437 14.5678 31.3076 14.5739 31.8653 14.5799C32.2943 14.5799 32.6376 14.2394 32.6376 13.8137C32.6376 13.388 32.2943 13.0414 31.8653 13.0414C31.0501 13.0414 30.2411 13.0353 29.432 13.0292L28.6169 11.3386C29.0337 11.3386 29.4443 11.3386 29.855 11.3386C30.6824 11.3386 31.5037 11.3386 32.374 11.3203C32.8031 11.3203 33.1463 10.9676 33.1402 10.5419C33.134 10.1223 32.7908 9.78176 32.3679 9.78176H32.3556C30.7988 9.8 29.3891 9.8 27.8691 9.78176L27.4523 8.91213C27.3052 8.61414 27.1214 8.3344 26.9068 8.08506C27.2869 8.08506 27.6669 8.08506 28.0346 8.08506C28.7701 8.08506 29.4872 8.08506 30.235 8.0729C30.664 8.0729 31.0072 7.72018 31.0011 7.29449C31.0011 6.86879 30.6395 6.53432 30.2166 6.53432C28.9908 6.54648 27.8323 6.54648 26.5575 6.5404C26.5697 5.94443 26.5268 5.37278 26.4349 4.83762C27.6975 4.83762 28.9601 4.83762 30.2227 4.83762C30.4372 4.83762 30.6272 4.75248 30.7682 4.61261C30.9521 4.43017 31.044 4.16259 30.9705 3.87069C30.8847 3.52405 30.5353 3.29904 30.1737 3.29904C28.7762 3.29904 27.3788 3.29904 25.9814 3.29904C25.7055 2.64833 25.3317 2.07669 24.8781 1.59626H26.343C26.772 1.59626 27.1152 1.2557 27.1152 0.83001C27.1152 0.404315 26.7659 0.0637595 26.343 0.0637595H21.9729C20.9003 -0.106518 19.7971 0.0637597 18.8225 0.580675C15.4576 2.35035 15.9848 6.32147 16.0093 6.49175C16.0644 6.86879 16.3893 7.15462 16.7754 7.15462H17.0328V8.09114C17.0328 8.32224 17.137 8.53508 17.3148 8.68104L18.7796 9.89122L16.4935 11.7947L16.0767 11.594L15.0041 11.0771H16.7815C17.2106 11.0771 17.5538 10.7365 17.5538 10.3108C17.5538 9.88514 17.2106 9.54459 16.7815 9.54459H16.2973C15.6906 7.04515 13.5392 3.22606 8.6911 3.22606C5.19137 3.22606 3.42618 5.16601 2.56197 6.79582C2.00422 7.84181 1.75293 8.87564 1.63648 9.54459H0.772268C0.34323 9.54459 0 9.89122 0 10.3108C0 10.7304 0.34323 11.0771 0.772268 11.0771H4.99523L5.71847 11.594L16.3219 19.1288C16.4567 19.2261 16.6099 19.2747 16.7693 19.2747C16.8673 19.2747 16.9715 19.2565 17.0635 19.2139L20.8758 17.651L22.4326 20.5518L17.1186 30.434C16.9715 30.7016 17.0022 31.0239 17.1922 31.2672L23.7258 39.6351C23.8729 39.8236 24.0997 39.9331 24.3387 39.9331H27.1643C27.9427 39.9757 28.7211 40 29.5056 40C30.2901 40 31.0992 39.9757 31.9205 39.9331C32.3495 39.9088 32.6744 39.55 32.6498 39.1243C32.6253 38.6986 32.2637 38.3702 31.8347 38.4006C30.8601 38.4492 29.9163 38.4675 28.9785 38.4553L28.4024 37.2391C29.6404 37.2573 30.8969 37.2755 32.1656 37.2755C33.845 37.2755 35.5305 37.2573 37.1793 37.2147C37.547 37.2087 37.8964 36.9593 37.9638 36.6005C38.0557 36.0958 37.6757 35.6701 37.1854 35.6822C34.0534 35.7552 30.7743 35.7552 27.673 35.6883L26.8762 33.9977C27.1643 34.0038 27.4523 34.0099 27.7465 34.0099H27.7588C28.1817 34.0099 28.5249 33.6754 28.5311 33.2497C28.5311 32.824 28.194 32.4774 27.7649 32.4713C27.2256 32.4652 26.6862 32.453 26.1468 32.447L25.5584 31.2003L28.102 27.1562L31.6508 32.4895C31.5956 32.5564 31.6508 32.4895 31.5956 32.5503C31.044 32.3375 30.5108 32.7328 30.5108 33.2619C30.5108 33.6876 30.8601 34.0281 31.283 34.0281C33.0115 34.0281 34.7705 34.0099 36.5234 33.9734C36.9525 33.9673 37.2896 33.6146 37.2835 33.1889C37.2773 32.7632 36.9218 32.4226 36.4928 32.4348C35.9963 32.447 35.4999 32.453 35.0034 32.4591L39.8393 30.732H46.0849C46.5139 30.732 46.8571 30.3915 46.8571 29.9658C46.8571 29.5401 46.5139 29.1995 46.0849 29.1995L46.1339 29.2178ZM18.6019 7.75059V6.40661C18.6019 5.98091 18.2525 5.64036 17.8296 5.64036H17.5354C17.5538 4.66734 17.8357 2.87334 19.5703 1.96722C20.1097 1.6814 20.7164 1.54761 21.3171 1.57193C21.409 1.6145 21.5132 1.63275 21.6174 1.63275H21.8565C22.0771 1.67532 22.2916 1.73613 22.5 1.81519C23.4991 2.21048 24.2652 3.04362 24.6758 4.17475C24.6881 4.28422 24.7188 4.3876 24.7739 4.47882C24.9884 5.19034 25.0681 6.00524 25.0129 6.8992C23.8178 6.57081 22.5123 6.82622 21.5194 7.65329L20.0055 8.91213L18.6019 7.75059ZM3.22392 9.56283C3.52424 8.01208 4.64588 4.78289 8.70335 4.78289C12.7608 4.78289 14.2073 7.96952 14.6915 9.56283H3.21779H3.22392ZM32.9318 31.5956L27.244 23.0513C27.0049 22.6985 26.5268 22.6012 26.1714 22.8323C25.8159 23.0634 25.7178 23.5439 25.9507 23.8966L27.1888 25.7575L24.0445 30.7442C23.9036 30.9631 23.8852 31.2428 23.9955 31.4739L24.9394 33.4686C24.9517 33.5112 24.9762 33.5477 24.9946 33.5842L26.4717 36.7161C26.4717 36.7161 26.4839 36.7465 26.4901 36.7586L27.2623 38.4006H24.731L18.7306 30.7259L24.0016 20.9228C24.1242 20.6978 24.1242 20.4241 24.0016 20.1991L22.3223 17.0672L24.9884 15.9726C25.3868 15.8084 25.5707 15.3644 25.4113 14.9692C25.2459 14.5739 24.7984 14.3914 24.4 14.5495L16.8796 17.6267L8.38464 11.5879L7.6614 11.071H11.4369L12.5157 11.5879L16.2667 13.388C16.5425 13.5157 16.8673 13.4792 17.1003 13.2846L22.4939 8.80874C23.2662 8.1702 24.351 8.09723 25.1968 8.6263C25.2091 8.63239 25.2213 8.64455 25.2336 8.65063C25.583 8.87564 25.8649 9.19187 26.0488 9.57499L26.582 10.6818C26.6065 10.8156 26.6678 10.9372 26.7536 11.0406L28.1511 13.9353C28.1756 14.057 28.2307 14.1725 28.3104 14.2637L29.7262 17.1888C29.7508 17.2983 29.7998 17.4017 29.8672 17.4868L31.2953 20.4363C31.3198 20.5397 31.3689 20.637 31.4301 20.716L32.8705 23.6959C32.895 23.7871 32.9379 23.8662 32.9869 23.9391L34.317 26.6879C34.4518 26.9737 34.7583 27.144 35.077 27.1197L42.7139 26.4994L42.7261 26.7183C42.7261 26.7183 42.7261 26.7244 42.7261 26.7305L42.8058 28.0441L32.9134 31.5712L32.9318 31.5956Z" fill="#120E1F"/>
<path d="M9.42648 1.77859C9.42648 2.22861 9.05873 2.59349 8.60518 2.59349C8.15162 2.59349 7.78387 2.22861 7.78387 1.77859C7.78387 1.32857 8.15162 0.963684 8.60518 0.963684C9.05873 0.963684 9.42648 1.32857 9.42648 1.77859Z" fill="#120E1F"/>
<path opacity="0.3" d="M22.3406 17.0852L20.9002 17.6751L21.2005 18.2407L22.6838 17.7237L22.3406 17.0852Z" fill="#120E1F"/>
<path opacity="0.3" d="M28.1326 27.1745L27.1949 25.7636L26.8149 26.3717L27.673 27.9042L28.1326 27.1745Z" fill="#120E1F"/>
<path opacity="0.3" d="M7.67969 11.1015L8.40293 11.6184H5.74289L5.01965 11.1015H7.67969Z" fill="#120E1F"/>
<path opacity="0.3" d="M16.0951 11.6184H12.5341L11.4554 11.1015H15.0164L16.0951 11.6184Z" fill="#120E1F"/>
</g>
</g>
<path d="M61.3493 19H57.0329L60.0309 4.9082H69.9235L69.2204 8.18945H63.6442L63.0681 10.9043H68.1071L67.4333 14.0098H62.404L61.3493 19ZM76.2126 8.36523L73.8005 13.2773H76.5153L76.3005 8.36523H76.2126ZM76.7692 19L76.6423 16.1973H72.3649L70.988 19H66.6227L74.3766 4.9082H79.572L81.0173 19H76.7692ZM82.111 14.8496H86.027C86.1442 15.6211 87.072 16.1777 88.2341 16.1777C89.4352 16.1777 90.1872 15.6992 90.1872 14.9961C90.1872 14.4785 89.9235 14.1758 88.5954 13.7656L87.1208 13.3164C84.7673 12.6035 83.5173 11.334 83.5173 9.41016C83.5173 6.53906 85.9977 4.66406 89.4157 4.66406C93.0485 4.66406 95.2653 6.32422 95.2849 9.11719H91.5056C91.4763 8.27734 90.6852 7.7207 89.5134 7.7207C88.4294 7.7207 87.7263 8.20898 87.7263 8.87305C87.7263 9.43945 88.1169 9.83008 89.2497 10.1621L90.7927 10.6113C93.322 11.3438 94.4157 12.3984 94.4157 14.4297C94.4157 17.3984 91.8766 19.2441 88.1559 19.2441C84.3571 19.2441 82.1208 17.6328 82.111 14.8496ZM102.394 19H98.2536L100.549 8.18945H96.6325L97.3356 4.9082H109.308L108.605 8.18945H104.689L102.394 19ZM60.0309 21.9082H65.8903C69.152 21.9082 71.486 23.8906 71.486 27.2891C71.486 32.3574 68.5173 36 64.0544 36H57.0329L60.0309 21.9082ZM63.5075 25.1797L61.9157 32.7188H63.4587C65.6657 32.7188 67.2282 30.8828 67.2282 27.8164C67.2282 26.2441 66.3688 25.1797 64.904 25.1797H63.5075ZM82.238 32.7188L81.5446 36H71.6032L74.6013 21.9082H84.5329L83.8298 25.1895H78.0388L77.5602 27.4746H82.9899L82.3552 30.4434H76.9255L76.4372 32.7188H82.238ZM93.9958 32.6211L93.2731 36H83.4001L86.3981 21.9082H90.5388L88.2634 32.6211H93.9958ZM98.8102 36H94.6696L97.6677 21.9082H101.808L98.8102 36ZM109.601 36H104.406L102.961 21.9082H107.58L107.765 31.8301H107.843L112.179 21.9082H116.877L109.601 36ZM125.675 32.7188L124.982 36H115.041L118.039 21.9082H127.97L127.267 25.1895H121.476L120.998 27.4746H126.427L125.793 30.4434H120.363L119.875 32.7188H125.675ZM132.58 28.4414H134.425C135.812 28.4414 136.681 27.6113 136.681 26.459C136.681 25.4629 136.056 24.9648 134.914 24.9648H133.332L132.58 28.4414ZM129.836 21.9082H136.174C139.142 21.9082 140.832 23.7051 140.832 26.1172C140.832 28.1094 139.67 30.043 137.521 30.8828L139.084 36H134.767L133.439 31.2734H131.984L130.978 36H126.838L129.836 21.9082ZM147.677 36H143.537L144.484 31.5371L141.711 21.9082H145.998L147.297 27.6211H147.375L150.998 21.9082H155.48L148.625 31.5371L147.677 36Z" fill="#120E1F"/>
<defs>
<clipPath id="clip0_1_149">
<rect width="46.8571" height="40" fill="white"/>
</clipPath>
<clipPath id="clip1_1_149">
<rect width="46.8571" height="40" fill="white"/>
</clipPath>
</defs>
</svg>
