<svg width="154" height="134" viewBox="0 0 154 134" fill="none" xmlns="http://www.w3.org/2000/svg">
<g clip-path="url(#clip0_1_12)">
<g clip-path="url(#clip1_1_12)">
<path d="M100.448 4.06673H110.974C112.047 4.06673 112.905 3.20013 112.905 2.1511C112.905 1.10207 112.032 0.235474 110.974 0.235474H100.448C99.3749 0.235474 98.5169 1.10207 98.5169 2.1511C98.5169 3.20013 99.3903 4.06673 100.448 4.06673Z" fill="#120E1F"/>
<path d="M89.124 4.06673H93.5982C94.6708 4.06673 95.5289 3.20013 95.5289 2.1511C95.5289 1.10207 94.6555 0.235474 93.5982 0.235474H89.124C88.0514 0.235474 87.1933 1.10207 87.1933 2.1511C87.1933 3.20013 88.0667 4.06673 89.124 4.06673Z" fill="#120E1F"/>
<path d="M110.591 8.32355C107.343 8.32355 104.11 8.32355 100.861 8.32355C99.7886 8.32355 98.9305 9.19015 98.9305 10.2392C98.9305 11.3034 99.8039 12.1548 100.861 12.1548C104.11 12.1548 107.358 12.1548 110.607 12.1548C111.679 12.1548 112.537 11.2882 112.537 10.224C112.537 9.15974 111.664 8.30835 110.607 8.30835L110.591 8.32355Z" fill="#120E1F"/>
<path d="M100.356 20.2583C103.665 20.2583 106.975 20.2735 110.285 20.2887C111.357 20.2887 112.216 19.4373 112.216 18.373C112.216 17.3088 111.357 16.4574 110.285 16.4574C106.975 16.4574 103.665 16.4574 100.356 16.427C99.2831 16.427 98.425 17.2784 98.425 18.3426C98.425 19.4069 99.2831 20.2735 100.356 20.2735V20.2583Z" fill="#120E1F"/>
<path d="M117.793 20.2735C122.282 20.2735 126.772 20.2735 131.246 20.2431C132.319 20.2431 133.177 19.3765 133.177 18.3122C133.177 17.248 132.304 16.3966 131.246 16.3966C126.757 16.4118 122.282 16.427 117.793 16.427C116.72 16.427 115.862 17.2936 115.862 18.3426C115.862 19.4069 116.736 20.2583 117.793 20.2583V20.2735Z" fill="#120E1F"/>
<path d="M122.558 28.3769C123.631 28.3769 124.489 27.5103 124.489 26.446C124.489 25.3818 123.616 24.5304 122.558 24.5304C116.736 24.5304 110.867 24.5304 105.152 24.5C104.079 24.5 103.206 25.3514 103.206 26.4156C103.206 27.4799 104.064 28.3465 105.136 28.3465C109.473 28.3769 113.901 28.3921 118.314 28.3921C119.739 28.3921 121.149 28.3921 122.574 28.3921L122.558 28.3769Z" fill="#120E1F"/>
<path d="M113.702 32.5883C110.683 32.6187 107.649 32.6339 104.677 32.6339C103.604 32.6339 102.746 33.5005 102.746 34.5647C102.746 35.6289 103.619 36.4803 104.677 36.4803C107.665 36.4803 110.714 36.4499 113.732 36.4347C114.805 36.4347 115.663 35.5529 115.648 34.5039C115.648 33.4548 114.774 32.6035 113.717 32.6035H113.702V32.5883Z" fill="#120E1F"/>
<path d="M107.864 50.665C107.849 51.7292 108.707 52.5958 109.764 52.611C113.487 52.6718 117.241 52.687 120.965 52.687C121.93 52.687 122.896 52.687 123.861 52.687C124.933 52.687 125.792 51.8204 125.792 50.7562C125.792 49.692 124.918 48.8406 123.861 48.8406C119.218 48.8558 114.499 48.8406 109.84 48.7646C108.768 48.7342 107.894 49.6008 107.879 50.6498L107.864 50.665Z" fill="#120E1F"/>
<path d="M113.87 60.8057C117.41 60.8057 121.026 60.7753 124.581 60.7145C125.653 60.6993 126.496 59.8175 126.481 58.7685C126.466 57.7042 125.592 56.8681 124.52 56.8833C120.98 56.9441 117.394 56.9745 113.87 56.9745C112.798 56.9745 111.94 57.8411 111.94 58.8901C111.94 59.9543 112.813 60.8057 113.87 60.8057Z" fill="#120E1F"/>
<path d="M132.763 73.0444H127.661C128.182 72.6643 128.488 72.0562 128.458 71.3872L128.304 68.8027H132.549C133.621 68.8027 134.479 67.9361 134.479 66.887C134.479 65.838 133.621 64.9714 132.549 64.9714H128.075L128.029 64.1504C127.998 63.6335 127.768 63.147 127.37 62.8125C126.971 62.4628 126.466 62.2956 125.945 62.3412L106.194 63.9376L104.661 60.7601C106.056 60.7753 107.45 60.7905 108.844 60.7905C109.917 60.7905 110.775 59.9391 110.775 58.8748C110.775 57.8106 109.917 56.944 108.844 56.944C106.822 56.944 104.784 56.9136 102.761 56.8832L100.708 52.6111H104.753C105.826 52.6111 106.684 51.7597 106.684 50.6954C106.684 49.6312 105.826 48.7798 104.753 48.7798H98.8386L96.8007 44.5533C99.329 44.5685 101.842 44.5837 104.34 44.5837C107.879 44.5837 111.403 44.5685 114.974 44.5077C116.046 44.5077 116.904 43.6259 116.889 42.5616C116.889 41.4974 116 40.6308 114.928 40.6612C108.247 40.7524 101.689 40.7524 94.9466 40.6612L92.8934 36.4195C94.2878 36.4195 95.6975 36.4347 97.0918 36.4499C98.1644 36.4499 99.0225 35.5985 99.0225 34.5342C99.0225 33.47 98.1644 32.6034 97.0918 32.6034C95.0539 32.6034 93.0313 32.5882 91.0087 32.573L88.9707 28.3465C90.0127 28.3465 91.0393 28.3465 92.066 28.3465C94.1345 28.3465 96.1878 28.3465 98.3636 28.3009C99.4362 28.3009 100.294 27.4191 100.279 26.3548C100.264 25.3058 99.4056 24.4544 98.3483 24.4544H98.3177C94.4257 24.5 90.9014 24.5 87.1014 24.4544L86.0594 22.2803C85.6917 21.5353 85.232 20.836 84.6957 20.2127C85.6457 20.2127 86.5957 20.2127 87.5151 20.2127C89.3538 20.2127 91.1466 20.2127 93.016 20.1823C94.0886 20.1823 94.9466 19.3005 94.9313 18.2362C94.9313 17.172 94.0273 16.3358 92.97 16.3358C89.9054 16.3662 87.0094 16.3662 83.8223 16.351C83.8529 14.8611 83.7457 13.4319 83.5158 12.0941C86.6723 12.0941 89.8288 12.0941 92.9853 12.0941C93.5216 12.0941 93.9966 11.8812 94.3491 11.5315C94.8087 11.0754 95.0386 10.4065 94.8547 9.67671C94.6402 8.81012 93.7668 8.2476 92.8627 8.2476C89.3691 8.2476 85.8755 8.2476 82.3819 8.2476C81.6924 6.62083 80.7577 5.19172 79.6238 3.99065H83.286C84.3586 3.99065 85.2167 3.13926 85.2167 2.07502C85.2167 1.01079 84.3433 0.159399 83.286 0.159399H72.3608C69.6793 -0.266296 66.9212 0.159399 64.4849 1.45169C56.0727 5.87587 57.3904 15.8037 57.4517 16.2294C57.5896 17.172 58.4017 17.8865 59.3671 17.8865H60.0106V20.2279C60.0106 20.8056 60.2711 21.3377 60.7155 21.7026L64.3776 24.7281L58.6622 29.4867L57.6203 28.985L54.9388 27.6927H59.3824C60.455 27.6927 61.3131 26.8413 61.3131 25.7771C61.3131 24.7129 60.455 23.8615 59.3824 23.8615H58.1719C56.6549 17.6129 51.2766 8.06516 39.1563 8.06516C30.407 8.06516 25.994 12.915 23.8335 16.9895C22.4391 19.6045 21.8109 22.1891 21.5197 23.8615H19.3592C18.2866 23.8615 17.4286 24.7281 17.4286 25.7771C17.4286 26.8261 18.2866 27.6927 19.3592 27.6927H29.9166L31.7247 28.985L58.2332 47.822C58.5703 48.0652 58.9534 48.1869 59.3518 48.1869C59.5969 48.1869 59.8574 48.1413 60.0873 48.0348L69.618 44.1276L73.51 51.3796L60.2252 76.0851C59.8574 76.754 59.934 77.5598 60.409 78.1679L76.7431 99.0878C77.1109 99.5591 77.6778 99.8328 78.2754 99.8328H85.3392C87.2852 99.9392 89.2312 100 91.1926 100C93.1539 100 95.1765 99.9392 97.2297 99.8328C98.3023 99.7719 99.1144 98.8749 99.0532 97.8107C98.9919 96.7465 98.0878 95.9255 97.0152 96.0015C94.5789 96.1231 92.2192 96.1687 89.8748 96.1383L88.4344 93.0977C91.5297 93.1433 94.6708 93.1889 97.8427 93.1889C102.041 93.1889 106.255 93.1433 110.377 93.0368C111.296 93.0216 112.169 92.3983 112.338 91.5013C112.568 90.2394 111.618 89.1752 110.392 89.2056C102.562 89.388 94.3644 89.388 86.611 89.2208L84.6191 84.9943C85.3392 85.0095 86.0594 85.0247 86.7949 85.0247H86.8256C87.8828 85.0247 88.7409 84.1885 88.7562 83.1242C88.7562 82.06 87.9135 81.1934 86.8409 81.1782C85.4925 81.163 84.1441 81.1326 82.7957 81.1174L81.3247 78.0007L87.6836 67.8904L96.5555 81.2238C96.4176 81.3911 96.5555 81.2238 96.4176 81.3759C95.0386 80.8437 93.7055 81.832 93.7055 83.1546C93.7055 84.2189 94.5789 85.0703 95.6362 85.0703C99.9572 85.0703 104.355 85.0247 108.737 84.9334C109.81 84.9182 110.653 84.0364 110.637 82.9722C110.622 81.908 109.733 81.0566 108.661 81.087C107.419 81.1174 106.178 81.1326 104.937 81.1478L117.027 76.83H132.641C133.713 76.83 134.571 75.9787 134.571 74.9144C134.571 73.8502 133.713 72.9988 132.641 72.9988L132.763 73.0444ZM63.9333 19.3765V16.0165C63.9333 14.9523 63.0599 14.1009 62.0026 14.1009H61.2671C61.3131 11.6684 62.0179 7.18336 66.3543 4.91806C67.7027 4.2035 69.2196 3.86902 70.7213 3.92984C70.9511 4.03626 71.2116 4.08187 71.4721 4.08187H72.0697C72.6213 4.18829 73.1576 4.34033 73.6786 4.53797C76.1762 5.52619 78.0916 7.60905 79.1182 10.4369C79.1488 10.7105 79.2254 10.969 79.3633 11.1971C79.8996 12.9758 80.0988 15.0131 79.9609 17.248C76.973 16.427 73.7092 17.0656 71.2269 19.1332L67.4422 22.2803L63.9333 19.3765ZM25.4884 23.9071C26.2392 20.0302 29.0432 11.9572 39.1869 11.9572C49.3306 11.9572 52.9468 19.9238 54.1573 23.9071H25.473H25.4884ZM99.758 78.9889L85.5384 57.6282C84.9408 56.7464 83.7457 56.5031 82.8569 57.0808C81.9682 57.6586 81.7231 58.8596 82.3053 59.7414L85.4005 64.3937L77.5399 76.8605C77.1875 77.4078 77.1415 78.1071 77.4173 78.6848L79.7771 83.6716C79.8077 83.778 79.869 83.8692 79.915 83.9604L83.6078 91.7902C83.6078 91.7902 83.6384 91.8662 83.6537 91.8966L85.5844 96.0015H79.2561L64.2551 76.8148L77.4327 52.307C77.7391 51.7445 77.7391 51.0603 77.4327 50.4978L73.2342 42.668L79.8996 39.9314C80.8956 39.521 81.3553 38.4111 80.9569 37.4229C80.5432 36.4347 79.4246 35.9786 78.4287 36.3738L59.6276 44.0668L38.3902 28.9698L36.5821 27.6775H46.0209L48.7177 28.9698L58.0953 33.47C58.7848 33.7893 59.5969 33.6981 60.1792 33.2115L73.6633 22.0219C75.5939 20.4255 78.3061 20.2431 80.4206 21.5658C80.4513 21.581 80.4819 21.6114 80.5126 21.6266C81.386 22.1891 82.0908 22.9797 82.5505 23.9375L83.8836 26.7045C83.9449 27.039 84.0981 27.343 84.3126 27.6015L87.8062 34.8383C87.8675 35.1424 88.0054 35.4312 88.2046 35.6593L91.7442 42.9721C91.8055 43.2458 91.928 43.5042 92.0966 43.7171L95.6668 51.0907C95.7281 51.3492 95.8507 51.5924 96.0039 51.7901L99.6048 59.2397C99.6661 59.4678 99.7733 59.6654 99.8959 59.8479L103.221 66.7198C103.558 67.4344 104.324 67.86 105.121 67.7992L124.213 66.2485L124.244 66.7958C124.244 66.7958 124.244 66.811 124.244 66.8262L124.443 70.1101L99.712 78.9281L99.758 78.9889Z" fill="#120E1F"/>
<path d="M40.995 4.4468C40.995 5.57185 40.0756 6.48405 38.9417 6.48405C37.8078 6.48405 36.8885 5.57185 36.8885 4.4468C36.8885 3.32175 37.8078 2.40955 38.9417 2.40955C40.0756 2.40955 40.995 3.32175 40.995 4.4468Z" fill="#120E1F"/>
<path opacity="0.3" d="M73.2802 42.7136L69.6794 44.1883L70.4302 45.6023L74.1383 44.31L73.2802 42.7136Z" fill="#120E1F"/>
<path opacity="0.3" d="M87.7603 67.9361L85.4159 64.4089L84.4659 65.9293L86.6111 69.7605L87.7603 67.9361Z" fill="#120E1F"/>
<path opacity="0.3" d="M36.628 27.7535L38.4361 29.0458H31.786L29.9779 27.7535H36.628Z" fill="#120E1F"/>
<path opacity="0.3" d="M57.6663 29.0458H48.7637L46.0669 27.7535H54.9695L57.6663 29.0458Z" fill="#120E1F"/>
</g>
</g>
<path d="M4.49219 129H0.175781L3.17383 114.908H13.0664L12.3633 118.189H6.78711L6.21094 120.904H11.25L10.5762 124.01H5.54688L4.49219 129ZM19.3555 118.365L16.9434 123.277H19.6582L19.4434 118.365H19.3555ZM19.9121 129L19.7852 126.197H15.5078L14.1309 129H9.76562L17.5195 114.908H22.7148L24.1602 129H19.9121ZM25.2539 124.85H29.1699C29.2871 125.621 30.2148 126.178 31.377 126.178C32.5781 126.178 33.3301 125.699 33.3301 124.996C33.3301 124.479 33.0664 124.176 31.7383 123.766L30.2637 123.316C27.9102 122.604 26.6602 121.334 26.6602 119.41C26.6602 116.539 29.1406 114.664 32.5586 114.664C36.1914 114.664 38.4082 116.324 38.4277 119.117H34.6484C34.6191 118.277 33.8281 117.721 32.6562 117.721C31.5723 117.721 30.8691 118.209 30.8691 118.873C30.8691 119.439 31.2598 119.83 32.3926 120.162L33.9355 120.611C36.4648 121.344 37.5586 122.398 37.5586 124.43C37.5586 127.398 35.0195 129.244 31.2988 129.244C27.5 129.244 25.2637 127.633 25.2539 124.85ZM45.5371 129H41.3965L43.6914 118.189H39.7754L40.4785 114.908H52.4512L51.748 118.189H47.832L45.5371 129ZM57.9199 114.908H63.7793C67.041 114.908 69.375 116.891 69.375 120.289C69.375 125.357 66.4062 129 61.9434 129H54.9219L57.9199 114.908ZM61.3965 118.18L59.8047 125.719H61.3477C63.5547 125.719 65.1172 123.883 65.1172 120.816C65.1172 119.244 64.2578 118.18 62.793 118.18H61.3965ZM80.127 125.719L79.4336 129H69.4922L72.4902 114.908H82.4219L81.7188 118.189H75.9277L75.4492 120.475H80.8789L80.2441 123.443H74.8145L74.3262 125.719H80.127ZM91.8848 125.621L91.1621 129H81.2891L84.2871 114.908H88.4277L86.1523 125.621H91.8848ZM96.6992 129H92.5586L95.5566 114.908H99.6973L96.6992 129ZM107.49 129H102.295L100.85 114.908H105.469L105.654 124.83H105.732L110.068 114.908H114.766L107.49 129ZM123.564 125.719L122.871 129H112.93L115.928 114.908H125.859L125.156 118.189H119.365L118.887 120.475H124.316L123.682 123.443H118.252L117.764 125.719H123.564ZM130.469 121.441H132.314C133.701 121.441 134.57 120.611 134.57 119.459C134.57 118.463 133.945 117.965 132.803 117.965H131.221L130.469 121.441ZM127.725 114.908H134.062C137.031 114.908 138.721 116.705 138.721 119.117C138.721 121.109 137.559 123.043 135.41 123.883L136.973 129H132.656L131.328 124.273H129.873L128.867 129H124.727L127.725 114.908ZM145.566 129H141.426L142.373 124.537L139.6 114.908H143.887L145.186 120.621H145.264L148.887 114.908H153.369L146.514 124.537L145.566 129Z" fill="#120E1F"/>
<defs>
<clipPath id="clip0_1_12">
<rect width="117.143" height="100" fill="white" transform="translate(17.4286)"/>
</clipPath>
<clipPath id="clip1_1_12">
<rect width="117.143" height="100" fill="white" transform="translate(17.4286)"/>
</clipPath>
</defs>
</svg>
